Patient4_TMGait_0pt6_02_left_44_GRF.mot
version=1
nRows=26
nColumns=19
inDegrees=no
endheader
time	F1x	F1y	F1z	M1x	M1y	M1z	F2x	F2y	F2z	M2x	M2y	M2z	EC1x	EC1y	EC1z	EC2x	EC2y	EC2z
53.69	-7.1461	8.0505	-7.1541	-2.1057	4.3356	19.2475	-28.4701	743.6836	-55.0631	264.8139	78.7517	859.5456	-0.0592	0.0182	-0.0073	-0.0462	0.0165	0.9585
53.7022	-4.9978	6.0757	-4.7246	-1.685	2.7684	13.6981	-28.1847	745.3453	-58.3014	264.966	80.5512	857.8376	-0.0592	0.0182	-0.0073	-0.0462	0.0165	0.9585
53.7144	-3.1659	4.4738	-2.6743	-1.3513	1.4581	9.1075	-27.6953	746.8861	-60.632	265.0741	81.3976	855.6517	-0.0592	0.0182	-0.0073	-0.0462	0.0165	0.9585
53.7266	-1.7399	3.3145	-1.1027	-1.1203	0.46101	5.6956	-26.9682	748.3488	-61.9647	265.1848	81.2556	853.1449	-0.0592	0.0182	-0.0073	-0.0462	0.0165	0.9585
53.7389	-0.75566	2.5879	-0.029236	-0.98804	-0.22038	3.4506	-25.9725	749.7625	-62.3838	265.3295	80.2268	850.3937	-0.0592	0.0182	-0.0073	-0.0462	0.0165	0.9585
53.7511	-0.1416	2.2034	0.63247	-0.93002	-0.64847	2.1517	-24.7258	751.0378	-62.1492	265.4818	78.572	847.3353	-0.0592	0.0182	-0.0073	-0.0462	0.0165	0.9585
53.7633	0.16331	2.0684	0.97491	-0.91955	-0.89115	1.5697	-23.2011	751.9332	-61.4743	265.5566	76.4839	843.6987	-0.0592	0.0182	-0.0073	-0.0462	0.0165	0.9585
53.7755	0.25104	2.0515	1.1078	-0.91869	-1.0215	1.4033	-21.3805	752.131	-60.5934	265.4315	74.1682	839.1325	-0.0592	0.0182	-0.0073	-0.0462	0.0165	0.9585
53.7877	0.17829	2.0374	1.1189	-0.8928	-1.1024	1.4057	-19.1983	751.3061	-59.629	264.9875	71.7077	833.26	-0.0592	0.0182	-0.0073	-0.0462	0.0165	0.9585
53.7999	0.0066959	1.8944	1.0781	-0.80259	-1.1783	1.3342	-16.6108	749.2777	-58.6922	264.1603	69.1774	825.8791	-0.0592	0.0182	-0.0073	-0.0462	0.0165	0.9585
53.8121	-0.22164	1.4896	1.0334	-0.60593	-1.277	0.96908	-13.5625	746.0994	-57.8008	262.9771	66.569	817.0288	-0.0592	0.0182	-0.0073	-0.0462	0.0165	0.9585
53.8244	-0.47911	0.70334	1.0114	-0.26364	-1.406	0.13194	-9.995	742.068	-56.98	261.5554	63.8811	807.0113	-0.0592	0.0182	-0.0073	-0.0462	0.0165	0.9585
53.8366	-0.70456	-0.55901	1.0253	0.25545	-1.551	-1.3204	-5.8402	737.6787	-56.2269	260.0907	61.0827	796.3245	-0.0592	0.0182	-0.0073	-0.0462	0.0165	0.9585
53.8488	-0.85877	-2.3192	1.0515	0.95854	-1.6645	-3.4198	-1.0362	733.5818	-55.5842	258.8331	58.1963	785.6378	-0.0592	0.0182	-0.0073	-0.0462	0.0165	0.9585
53.861	-0.83366	-4.5062	1.0507	1.8157	-1.6615	-6.0968	4.3876	730.469	-55.0875	258.0466	55.2721	775.6839	-0.0592	0.0182	-0.0073	-0.0462	0.0165	0.9585
53.8732	-0.54746	-6.8606	0.94856	2.726	-1.416	-9.0076	10.3218	728.9552	-54.7961	257.9589	52.4123	767.1352	-0.0592	0.0182	-0.0073	-0.0462	0.0165	0.9585
53.8854	0.15505	-8.8997	0.65525	3.4939	-0.75914	-11.5682	16.5515	729.4154	-54.7683	258.6976	49.746	760.4589	-0.0592	0.0182	-0.0073	-0.0462	0.0165	0.9585
53.8976	1.3765	-9.7762	0.058256	3.7864	0.4921	-12.7091	22.7738	731.8164	-55.0416	260.2274	47.4074	755.7449	-0.0592	0.0182	-0.0073	-0.0462	0.0165	0.9585
53.9099	3.2652	-8.2826	-0.94762	3.1213	2.5215	-10.9466	28.6365	735.6491	-55.6557	262.3218	45.5481	752.6478	-0.0592	0.0182	-0.0073	-0.0462	0.0165	0.9585
53.9221	5.834	-2.7578	-2.4473	0.84348	5.4451	-4.2098	33.7691	739.8879	-56.6009	264.5575	44.2784	750.328	-0.0592	0.0182	-0.0073	-0.0462	0.0165	0.9585
53.9343	9.0244	8.7809	-4.4642	-3.8351	9.2608	9.9431	37.8168	743.1279	-57.8276	266.3683	43.6655	747.5805	-0.0592	0.0182	-0.0073	-0.0462	0.0165	0.9585
53.9465	12.4984	28.4659	-6.9101	-11.7545	13.72	34.1905	40.5056	743.8227	-59.1883	267.1394	43.6607	743.052	-0.0592	0.0182	-0.0073	-0.0462	0.0165	0.9585
53.9587	15.6171	58.1116	-9.514	-23.6197	18.2133	70.808	41.663	740.4427	-60.4554	266.2776	44.1118	735.3766	-0.0592	0.0182	-0.0073	-0.0462	0.0165	0.9585
53.9709	17.2294	98.5412	-11.7318	-39.7231	21.6026	120.8642	41.254	731.6087	-61.3048	263.2634	44.7371	723.3001	-0.0592	0.0182	-0.0073	-0.0462	0.0165	0.9585
53.9831	15.7511	148.7028	-12.8287	-59.6016	22.3462	183.0954	39.4059	716.1346	-61.3943	257.6748	45.1842	705.689	-0.0592	0.0182	-0.0073	-0.0462	0.0165	0.9585
53.9954	9.9609	205.0885	-11.8518	-81.8016	18.7902	253.1787	36.3831	693.1697	-60.4114	249.2397	45.0741	681.6737	-0.0592	0.0182	-0.0073	-0.0462	0.0165	0.9585
